HIERARCHY
ROOT Hips
{
	OFFSET 0.00000 0.00000 0.00000
	CHANNELS 6 Xposition Yposition Zposition Zrotation Yrotation Xrotation 
	JOINT LHipJoint
	{
		OFFSET 0 0 0
		CHANNELS 3 Zrotation Yrotation Xrotation
		JOINT LeftUpLeg
		{
			OFFSET 1.28366 -1.58472 0.87544
			CHANNELS 3 Zrotation Yrotation Xrotation
			JOINT LeftLeg
			{
				OFFSET 2.18587 -6.00562 0.00000
				CHANNELS 3 Zrotation Yrotation Xrotation
				JOINT LeftFoot
				{
					OFFSET 2.39085 -6.56880 0.00000
					CHANNELS 3 Zrotation Yrotation Xrotation
					JOINT LeftToeBase
					{
						OFFSET 0.12003 -0.32979 2.03101
						CHANNELS 3 Zrotation Yrotation Xrotation
						End Site
						{
							OFFSET 0.00000 -0.00000 1.04074
						}
					}
				}
			}
		}
	}
	JOINT RHipJoint
	{
		OFFSET 0 0 0
		CHANNELS 3 Zrotation Yrotation Xrotation
		JOINT RightUpLeg
		{
			OFFSET -1.21795 -1.58472 0.87544
			CHANNELS 3 Zrotation Yrotation Xrotation
			JOINT RightLeg
			{
				OFFSET -2.22714 -6.11902 0.00000
				CHANNELS 3 Zrotation Yrotation Xrotation
				JOINT RightFoot
				{
					OFFSET -2.40306 -6.60235 0.00000
					CHANNELS 3 Zrotation Yrotation Xrotation
					JOINT RightToeBase
					{
						OFFSET -0.15519 -0.42640 1.91430
						CHANNELS 3 Zrotation Yrotation Xrotation
						End Site
						{
							OFFSET -0.00000 -0.00000 0.99082
						}
					}
				}
			}
		}
	}
	JOINT LowerBack
	{
		OFFSET 0 0 0
		CHANNELS 3 Zrotation Yrotation Xrotation
		JOINT Spine
		{
			OFFSET 0.01180 1.76430 -0.06387
			CHANNELS 3 Zrotation Yrotation Xrotation
			JOINT Spine1
			{
				OFFSET -0.00388 1.74651 0.09536
				CHANNELS 3 Zrotation Yrotation Xrotation
				JOINT Neck
				{
					OFFSET 0 0 0
					CHANNELS 3 Zrotation Yrotation Xrotation
					JOINT Neck1
					{
						OFFSET 0.04111 1.46174 0.14397
						CHANNELS 3 Zrotation Yrotation Xrotation
						JOINT Head
						{
							OFFSET 0.00502 1.44580 -0.31711
							CHANNELS 3 Zrotation Yrotation Xrotation
							End Site
							{
								OFFSET -0.00395 1.49251 -0.12327
							}
						}
					}
				}
				JOINT LeftShoulder
				{
					OFFSET 0 0 0
					CHANNELS 3 Zrotation Yrotation Xrotation
					JOINT LeftArm
					{
						OFFSET 2.70917 1.34870 -0.15417
						CHANNELS 3 Zrotation Yrotation Xrotation
						JOINT LeftForeArm
						{
							OFFSET 4.46610 -0.00000 -0.00000
							CHANNELS 3 Zrotation Yrotation Xrotation
							JOINT LeftHand
							{
								OFFSET 3.41414 -0.00000 0.00000
								CHANNELS 3 Zrotation Yrotation Xrotation
								JOINT LeftFingerBase
								{
									OFFSET 0 0 0
									CHANNELS 3 Zrotation Yrotation Xrotation
									JOINT LeftHandIndex1
									{
										OFFSET 0.32830 -0.00000 0.00000
										CHANNELS 3 Zrotation Yrotation Xrotation
										End Site
										{
											OFFSET 0.26468 -0.00000 0.00000
										}
									}
								}
								JOINT LThumb
								{
									OFFSET 0 0 0
									CHANNELS 3 Zrotation Yrotation Xrotation
									End Site
									{
										OFFSET 0.26872 -0.00000 0.26872
									}
								}
							}
						}
					}
				}
				JOINT RightShoulder
				{
					OFFSET 0 0 0
					CHANNELS 3 Zrotation Yrotation Xrotation
					JOINT RightArm
					{
						OFFSET -3.06316 1.13725 -0.10883
						CHANNELS 3 Zrotation Yrotation Xrotation
						JOINT RightForeArm
						{
							OFFSET -4.40431 -0.00000 0.00000
							CHANNELS 3 Zrotation Yrotation Xrotation
							JOINT RightHand
							{
								OFFSET -3.04688 -0.00000 0.00000
								CHANNELS 3 Zrotation Yrotation Xrotation
								JOINT RightFingerBase
								{
									OFFSET 0 0 0
									CHANNELS 3 Zrotation Yrotation Xrotation
									JOINT RightHandIndex1
									{
										OFFSET -0.50049 -0.00000 0.00000
										CHANNELS 3 Zrotation Yrotation Xrotation
										End Site
										{
											OFFSET -0.40351 -0.00000 0.00000
										}
									}
								}
								JOINT RThumb
								{
									OFFSET 0 0 0
									CHANNELS 3 Zrotation Yrotation Xrotation
									End Site
									{
										OFFSET -0.40967 -0.00000 0.40967
									}
								}
							}
						}
					}
				}
			}
		}
	}
}
MOTION
Frames: 11
Frame Time: .0083333
4.5268 13.3772 6.3947 0 0 0 0 0 0 -21 0 0 0 0 0 0 0 0 0 0 0 0 0 0 21 0 0 0 0 0 0 0 0 0 0 0 0 0 0 0 0 0 0 0 0 0 0 -16 0 0 21 0 0 11 0 0 0 -8 0 0 0 0 0 0 0 0 0 0 0 0 0 0 0 0 0 0 0 0 8 0 0 0 0 0 0 0 0 0 0 0 0 0 0 0 0 0
4.5268 13.3772 6.3947 -176.8720 -0.4962 -176.3660 0.0000 0.0000 0.0000 -11.2535 27.4280 -46.3519 14.7032 19.3136 74.3411 2.9590 -5.8615 -31.3481 0.0228 0.9753 2.6809 0.0000 0.0000 0.0000 19.4348 -26.1990 -47.6763 -14.8327 -19.3474 74.7322 -3.3117 7.9589 -33.0321 -0.5556 -4.7747 13.2672 1.0184 2.9167 4.7002 0.8792 3.8583 -5.7316 -0.0939 1.7582 -8.6631 1.6032 2.8451 -20.0586 5.8147 1.2022 24.2600 1.9946 1.1945 11.1894 -0.0000 0.0000 0.0000 -1.0842 0.6565 34.3910 18.5754 -28.8877 -4.8240 -0.0000 0.0000 -14.7921 2.8529 -0.3872 -0.0193 -7.1250 0.0000 -0.0000 -18.3609 29.3225 7.3642 -0.0000 0.0000 0.0000 7.2682 -5.2019 34.2264 -22.0922 33.0811 -6.6361 0.0000 -0.0000 -8.2517 -5.0352 14.7584 -1.2858 7.1250 -0.0000 -0.0000 15.1890 -15.4983 10.9761
4.5247 13.3814 6.3947 -176.8500 -0.5017 -176.3680 0.0000 0.0000 0.0000 -11.2360 27.3671 -46.3179 14.6878 19.3095 74.2945 2.9519 -5.7992 -31.3169 0.0220 0.9570 2.6305 0.0000 0.0000 0.0000 19.4589 -26.1704 -47.6300 -14.8104 -19.3416 74.6649 -3.3083 7.8976 -33.0193 -0.5435 -4.7233 13.1211 1.0242 2.9147 4.7154 0.8838 3.8561 -5.7434 -0.0931 1.7563 -8.6849 1.5793 2.8492 -20.0419 5.9252 1.1836 24.2345 2.0351 1.1963 11.1765 -0.0000 -0.0000 0.0000 -1.0957 0.5939 34.3083 18.5604 -28.8688 -4.8168 -0.0000 0.0000 -14.7888 2.6778 -0.4733 -0.0221 -7.1250 0.0000 -0.0000 -18.4771 29.2362 7.4558 -0.0000 -0.0000 0.0000 7.3062 -5.2214 34.1206 -22.0693 33.0553 -6.6236 0.0000 -0.0000 -8.5143 -4.9624 14.8069 -1.2712 7.1250 -0.0000 -0.0000 15.2345 -15.4546 11.0264
4.5215 13.3862 6.3941 -176.8410 -0.4950 -176.3730 0.0000 0.0000 0.0000 -11.2522 27.3281 -46.2795 14.6713 19.3051 74.2447 2.9478 -5.6500 -31.3144 0.0190 0.8902 2.4467 0.0000 0.0000 0.0000 19.4354 -26.1235 -47.5801 -14.7881 -19.3359 74.5977 -3.2981 7.9260 -32.9634 -0.5579 -4.7844 13.2945 1.0638 2.9005 4.7271 0.8522 3.8369 -5.7757 -0.1474 1.7418 -8.7220 1.6608 2.8857 -19.9332 6.0188 1.1795 24.1935 2.0514 1.2089 11.1416 0.0000 0.0000 0.0000 -1.0004 0.6143 34.3861 18.5755 -28.8878 -4.8241 -0.0000 0.0000 -14.7455 2.5901 -0.5280 -0.0239 -7.1250 0.0000 -0.0000 -18.5331 29.1821 7.5060 0.0000 0.0000 0.0000 7.3153 -5.2297 34.2683 -22.1433 33.1386 -6.6640 0.0000 -0.0000 -8.9627 -4.8789 14.7772 -1.2472 7.1250 -0.0000 -0.0000 15.2916 -15.4874 11.0597
4.5195 13.3892 6.3938 -176.8150 -0.4955 -176.3690 0.0000 0.0000 0.0000 -11.2427 27.2559 -46.2413 14.6562 19.3011 74.1990 2.9422 -5.5189 -31.3015 0.0173 0.8484 2.3318 0.0000 0.0000 0.0000 19.4597 -26.1142 -47.5582 -14.7668 -19.3303 74.5334 -3.2874 7.9184 -32.9077 -0.5581 -4.7853 13.2972 1.0959 2.9077 4.7340 0.8503 3.8497 -5.7727 -0.1689 1.7461 -8.7205 1.5301 2.8765 -19.9664 6.2311 1.1476 24.1671 2.1460 1.2086 11.1365 0.0000 0.0000 0.0000 -0.9390 0.5518 34.4755 18.5962 -28.9139 -4.8341 -0.0000 0.0000 -14.7478 2.5819 -0.5758 -0.0260 -7.1250 0.0000 -0.0000 -18.5308 29.1366 7.5263 0.0000 0.0000 0.0000 7.2898 -5.2930 34.2758 -22.1946 33.1963 -6.6921 0.0000 -0.0000 -9.2901 -4.9582 14.8069 -1.2701 7.1250 -0.0000 -0.0000 15.2373 -15.4549 11.0285
4.5187 13.3945 6.3929 -176.8070 -0.4746 -176.3650 0.0000 0.0000 0.0000 -11.2271 27.2334 -46.2155 14.6390 19.2965 74.1470 2.9352 -5.5938 -31.2522 0.0240 1.0005 2.7501 0.0000 0.0000 0.0000 19.4735 -26.0746 -47.5073 -14.7401 -19.3233 74.4525 -3.2864 7.9031 -32.9034 -0.5633 -4.8073 13.3597 1.0517 2.9017 4.7379 0.8584 3.8373 -5.7896 -0.1350 1.7422 -8.7449 1.5177 2.8956 -19.9576 6.3646 1.1333 24.1787 2.1946 1.2153 11.1393 0.0000 0.0000 0.0000 -0.9133 0.5868 34.4321 18.6290 -28.9551 -4.8499 -0.0000 0.0000 -14.7476 2.5813 -0.6257 -0.0282 -7.1250 0.0000 -0.0000 -18.5224 29.0892 7.5446 0.0000 0.0000 0.0000 7.2839 -5.2810 34.2734 -22.1886 33.1896 -6.6888 0.0000 -0.0000 -9.2190 -5.2580 14.9297 -1.3582 7.1250 -0.0000 -0.0000 15.0317 -15.3217 10.9132
4.5173 13.3993 6.3922 -176.7940 -0.4636 -176.3620 0.0000 0.0000 0.0000 -11.2201 27.1973 -46.1834 14.6214 19.2918 74.0936 2.9290 -5.5610 -31.2215 0.0260 1.0405 2.8602 0.0000 0.0000 0.0000 19.4866 -26.0441 -47.4641 -14.7145 -19.3166 74.3753 -3.2809 7.8895 -32.8756 -0.5666 -4.8209 13.3984 1.0436 2.9008 4.7442 0.8548 3.8345 -5.8042 -0.1347 1.7405 -8.7648 1.4968 2.9082 -19.9445 6.5080 1.1119 24.1712 2.2465 1.2193 11.1342 0.0000 0.0000 0.0000 -0.8774 0.5669 34.4160 18.6447 -28.9748 -4.8575 -0.0000 0.0000 -14.7648 2.5518 -0.6565 -0.0293 -7.1250 0.0000 -0.0000 -18.5390 29.0593 7.5661 0.0000 0.0000 0.0000 7.2818 -5.3010 34.2844 -22.2037 33.2065 -6.6971 0.0000 -0.0000 -9.3208 -5.3812 15.0142 -1.3979 7.1250 -0.0000 -0.0000 14.9454 -15.2339 10.8752
4.5162 13.4043 6.3915 -176.7820 -0.4519 -176.3580 0.0000 0.0000 0.0000 -11.2152 27.1671 -46.1525 14.6023 19.2866 74.0358 2.9224 -5.5321 -31.1890 0.0279 1.0792 2.9668 0.0000 0.0000 0.0000 19.5007 -26.0150 -47.4213 -14.6876 -19.3095 74.2939 -3.2753 7.8757 -32.8475 -0.5700 -4.8352 13.4391 1.0300 2.9003 4.7508 0.8503 3.8316 -5.8196 -0.1321 1.7391 -8.7861 1.4806 2.9217 -19.9347 6.6533 1.0887 24.1682 2.2983 1.2230 11.1317 -0.0000 -0.0000 0.0000 -0.8454 0.5436 34.3833 18.6585 -28.9921 -4.8642 -0.0000 0.0000 -14.8000 2.5365 -0.6692 -0.0296 -7.1250 0.0000 -0.0000 -18.5482 29.0469 7.5761 -0.0000 -0.0000 0.0000 7.2759 -5.3223 34.3050 -22.2192 33.2239 -6.7056 0.0000 -0.0000 -9.3793 -5.5056 15.1029 -1.4386 7.1250 -0.0000 -0.0000 14.8584 -15.1416 10.8378
4.5153 13.4093 6.3908 -176.7700 -0.4411 -176.3530 0.0000 0.0000 0.0000 -11.2105 27.1407 -46.1238 14.5824 19.2812 73.9755 2.9159 -5.5060 -31.1562 0.0297 1.1131 3.0601 0.0000 0.0000 0.0000 19.5185 -25.9888 -47.3811 -14.6609 -19.3024 74.2132 -3.2703 7.8605 -32.8219 -0.5725 -4.8454 13.4681 1.0143 2.9005 4.7577 0.8459 3.8296 -5.8339 -0.1285 1.7383 -8.8066 1.4646 2.9337 -19.9377 6.8008 1.0617 24.1717 2.3508 1.2255 11.1343 -0.0000 -0.0000 0.0000 -0.8204 0.5105 34.3278 18.6675 -29.0034 -4.8686 -0.0000 0.0000 -14.8540 2.5322 -0.6655 -0.0294 -7.1250 0.0000 -0.0000 -18.5521 29.0502 7.5762 -0.0000 -0.0000 0.0000 7.2675 -5.3452 34.3231 -22.2319 33.2381 -6.7125 0.0000 -0.0000 -9.4021 -5.6144 15.1964 -1.4761 7.1250 -0.0000 -0.0000 14.7816 -15.0455 10.8093
4.5146 13.4144 6.3903 -176.7600 -0.4323 -176.3450 0.0000 0.0000 0.0000 -11.2099 27.1163 -46.0982 14.5617 19.2756 73.9127 2.9097 -5.4811 -31.1246 0.0313 1.1423 3.1403 0.0000 0.0000 0.0000 19.5363 -25.9655 -47.3453 -14.6344 -19.2953 74.1329 -3.2650 7.8482 -32.7953 -0.5748 -4.8552 13.4960 0.9966 2.9002 4.7651 0.8400 3.8267 -5.8488 -0.1252 1.7371 -8.8280 1.4562 2.9458 -19.9463 6.9464 1.0317 24.1791 2.4011 1.2272 11.1398 -0.0000 -0.0000 0.0000 -0.7995 0.4733 34.2563 18.6720 -29.0091 -4.8708 -0.0000 0.0000 -14.9196 2.5393 -0.6479 -0.0287 -7.1250 0.0000 -0.0000 -18.5499 29.0671 7.5674 -0.0000 -0.0000 0.0000 7.2563 -5.3681 34.3465 -22.2454 33.2533 -6.7199 0.0000 -0.0000 -9.4115 -5.6817 15.2799 -1.5019 7.1250 -0.0000 -0.0000 14.7328 -14.9609 10.7988
4.5139 13.4195 6.3899 -176.7480 -0.4270 -176.3350 0.0000 0.0000 0.0000 -11.2102 27.0920 -46.0757 14.5404 19.2698 73.8484 2.9037 -5.4508 -31.0954 0.0323 1.1600 3.1891 0.0000 0.0000 0.0000 19.5576 -25.9470 -47.3144 -14.6081 -19.2882 74.0532 -3.2596 7.8374 -32.7672 -0.5765 -4.8621 13.5157 0.9817 2.8986 4.7732 0.8335 3.8222 -5.8627 -0.1240 1.7350 -8.8485 1.4511 2.9575 -19.9639 7.0923 0.9995 24.1893 2.4509 1.2283 11.1483 0.0000 0.0000 0.0000 -0.7799 0.4341 34.1757 18.6724 -29.0096 -4.8709 -0.0000 0.0000 -14.9873 2.5579 -0.6223 -0.0278 -7.1250 0.0000 -0.0000 -18.5405 29.0918 7.5516 0.0000 0.0000 0.0000 7.2423 -5.3893 34.3731 -22.2600 33.2697 -6.7279 0.0000 -0.0000 -9.4251 -5.7014 15.3486 -1.5138 7.1250 -0.0000 -0.0000 14.7163 -14.8932 10.8079
